<svg width="20" height="18" viewBox="0 0 20 18" fill="none" xmlns="http://www.w3.org/2000/svg">
<path d="M18.1083 13.9999L11.4416 2.33319C11.2962 2.0767 11.0854 1.86335 10.8307 1.71492C10.576 1.56649 10.2864 1.48828 9.99161 1.48828C9.69678 1.48828 9.40724 1.56649 9.1525 1.71492C8.89777 1.86335 8.68697 2.0767 8.54161 2.33319L1.87494 13.9999C1.72801 14.2543 1.65096 14.5431 1.65162 14.837C1.65227 15.1308 1.73059 15.4192 1.87865 15.673C2.0267 15.9269 2.23923 16.137 2.49469 16.2822C2.75014 16.4274 3.03945 16.5025 3.33327 16.4999H16.6666C16.959 16.4996 17.2462 16.4223 17.4993 16.2759C17.7525 16.1295 17.9626 15.9191 18.1087 15.6658C18.2548 15.4125 18.3316 15.1252 18.3316 14.8328C18.3315 14.5404 18.2545 14.2531 18.1083 13.9999Z" fill="#F42F2F" stroke="#F42F2F" stroke-width="2" stroke-linecap="round" stroke-linejoin="round"/>
<path d="M10 6.5V9.83333" stroke="white" stroke-width="2" stroke-linecap="round" stroke-linejoin="round"/>
<path d="M10 13.167H10.0083" stroke="white" stroke-width="2" stroke-linecap="round" stroke-linejoin="round"/>
</svg>
