<svg width="24" height="24" viewBox="0 0 24 24" fill="none" xmlns="http://www.w3.org/2000/svg">
<path d="M17.32 5H6.68C5.69028 5.00023 4.73579 5.36738 4.00103 6.03046C3.26628 6.69355 2.80345 7.60549 2.702 8.59C2.696 8.642 2.692 8.691 2.685 8.742C2.604 9.416 2 14.456 2 16C2 16.7957 2.31607 17.5587 2.87868 18.1213C3.44129 18.6839 4.20435 19 5 19C6 19 6.5 18.5 7 18L8.414 16.586C8.78899 16.2109 9.29761 16.0001 9.828 16H14.172C14.7024 16.0001 15.211 16.2109 15.586 16.586L17 18C17.5 18.5 18 19 19 19C19.7956 19 20.5587 18.6839 21.1213 18.1213C21.6839 17.5587 22 16.7957 22 16C22 14.455 21.396 9.416 21.315 8.742C21.308 8.692 21.304 8.642 21.298 8.591C21.1968 7.60631 20.7341 6.69413 19.9993 6.03083C19.2645 5.36754 18.3099 5.00026 17.32 5Z" fill="#22252A" stroke="#22252A" stroke-width="2" stroke-linecap="round" stroke-linejoin="round"/>
<path fill-rule="evenodd" clip-rule="evenodd" d="M5.25 11C5.25 10.5858 5.58579 10.25 6 10.25H10C10.4142 10.25 10.75 10.5858 10.75 11C10.75 11.4142 10.4142 11.75 10 11.75H6C5.58579 11.75 5.25 11.4142 5.25 11Z" fill="white"/>
<path fill-rule="evenodd" clip-rule="evenodd" d="M8 8.25C8.41421 8.25 8.75 8.58579 8.75 9V13C8.75 13.4142 8.41421 13.75 8 13.75C7.58579 13.75 7.25 13.4142 7.25 13V9C7.25 8.58579 7.58579 8.25 8 8.25Z" fill="white"/>
<path fill-rule="evenodd" clip-rule="evenodd" d="M14.25 12C14.25 11.5858 14.5858 11.25 15 11.25H15.01C15.4242 11.25 15.76 11.5858 15.76 12C15.76 12.4142 15.4242 12.75 15.01 12.75H15C14.5858 12.75 14.25 12.4142 14.25 12Z" fill="white"/>
<path fill-rule="evenodd" clip-rule="evenodd" d="M17.25 10C17.25 9.58579 17.5858 9.25 18 9.25H18.01C18.4242 9.25 18.76 9.58579 18.76 10C18.76 10.4142 18.4242 10.75 18.01 10.75H18C17.5858 10.75 17.25 10.4142 17.25 10Z" fill="white"/>
</svg>
