<svg width="16" height="16" viewBox="0 0 16 16" fill="none" xmlns="http://www.w3.org/2000/svg">
<rect x="1" y="1" width="14" height="14" rx="3" stroke="white" stroke-width="2"/>
<path d="M3.25886 12.2279C3.2406 12.3587 3.27793 12.4813 3.35906 12.5736C3.43555 12.6605 3.53806 12.7066 3.63455 12.7226C3.8216 12.7536 4.07046 12.6782 4.17049 12.4308C5.25642 9.74545 7.22604 9.08687 7.88721 8.93674C7.88965 8.93618 7.89061 8.93639 7.89073 8.93641L7.89074 8.93641C7.89101 8.93646 7.89201 8.93669 7.8937 8.93778C7.89721 8.94006 7.90371 8.94633 7.90711 8.95903L8.26507 10.295C8.38472 10.7416 8.96848 10.8502 9.24079 10.4766L12.5039 5.99989C12.7153 5.70996 12.5969 5.29858 12.2638 5.16529L7.2652 3.16512C6.84466 2.99685 6.41238 3.38059 6.52961 3.81811L6.90077 5.20328C6.90586 5.22231 6.89851 5.25233 6.86909 5.27065C5.64062 6.03551 4.81584 7.2323 4.261 8.4992C3.70586 9.76677 3.41335 11.1215 3.25886 12.2279Z" fill="white" stroke="white" stroke-width="0.5" stroke-linecap="round" stroke-linejoin="round"/>
</svg>
