<svg width="232" height="32" viewBox="0 0 232 32" fill="none" xmlns="http://www.w3.org/2000/svg">
<g clip-path="url(#clip0_5365_28804)">
<path d="M16.0961 0H8.51659L0.694824 31.3978H24.2224L25.766 25.1681H9.76945L16.0961 0Z" fill="#FF4E00"/>
<path d="M28.0087 31.3978H52.2284L53.7236 25.1681H36.9241L38.62 18.5438H51.3286L52.8237 12.411H40.1151L41.6587 6.22972H58.0082L59.6072 0H35.8304L28.0087 31.3978Z" fill="#FF4E00"/>
<path d="M85.9658 0L71.9143 22.0809H71.7136L69.0694 0H61.4968L65.6846 31.3978H73.6586L93.8914 0H85.9658Z" fill="#FF4E00"/>
<path d="M99.5258 18.5438H112.234L113.73 12.411H101.021L102.565 6.22972H118.914L120.506 0H96.7294L88.9076 31.3978H113.127L114.622 25.1681H97.8299L99.5258 18.5438Z" fill="#FF4E00"/>
<path d="M126.231 25.1681L132.564 0H124.985L117.447 30.2488L137.098 25.1681H126.231Z" fill="#FF4E00"/>
<path d="M146.228 31.3978L147.557 26.0403L126.84 31.3978H146.228Z" fill="#FF4E00"/>
<path d="M159.906 17.8447L164.391 0H156.867L152.527 17.4432C152.16 18.883 151.987 20.2327 151.994 21.4925L159.615 19.5198C159.663 18.9937 159.76 18.4331 159.906 17.8447Z" fill="#FF4E00"/>
<path d="M171.666 25.6181C168.787 25.6181 166.973 24.2061 166.572 21.6588L159.103 23.59C160.051 28.913 164.62 32.0001 171.015 32.0001C179.536 32.0001 184.624 28.2069 186.915 19.1392L187.642 16.2043L179.55 18.3017C178.29 23.0986 176.138 25.6181 171.666 25.6181Z" fill="#FF4E00"/>
<path d="M184.728 0H177.204L173.203 16.0035L181.288 13.913L184.728 0Z" fill="#FF4E00"/>
<path d="M202.067 0H189.511L186.368 12.5979L212.305 5.88363C211.003 2.35345 207.501 0 202.067 0Z" fill="#FF4E00"/>
<path d="M192.722 14.8959L188.611 31.3978H196.142L198.682 21.181H204.614C213.634 21.181 219.815 17.2909 219.815 9.2684C219.815 8.80463 219.787 8.34779 219.732 7.90479L192.729 14.8959H192.722Z" fill="#FF4E00"/>
<path d="M219.808 0L223.131 11.3589L231.305 2.80337L219.808 0Z" fill="#FF4E00"/>
</g>
<defs>
<clipPath id="clip0_5365_28804">
<rect width="230.61" height="32" fill="white" transform="translate(0.694824)"/>
</clipPath>
</defs>
</svg>
