<svg width="40" height="40" viewBox="0 0 40 40" fill="none" xmlns="http://www.w3.org/2000/svg">
<g clip-path="url(#clip0_5362_7680)">
<path d="M3.96622 21.5937L6.22174 12.6479H2.45165L0.272405 21.3976C0.0871697 22.1168 0 22.7923 0 23.4243L3.82457 22.4327C3.84636 22.1712 3.90084 21.8879 3.96622 21.5937Z" fill="#FF4E00"/>
<path d="M9.64323 26.1595C8.19403 26.1595 7.28964 25.4512 7.09351 24.1764L3.34521 25.1461C3.82465 27.8157 6.11285 29.363 9.31634 29.363C13.5877 29.363 16.1374 27.4561 17.2924 22.9124L17.6519 21.4414L13.5986 22.4983C12.9666 24.9064 11.8878 26.1704 9.64323 26.1704V26.1595Z" fill="#FF4E00"/>
<path d="M16.4207 12.6479H12.6397L10.6348 20.6785L14.6882 19.6215L16.4207 12.6479Z" fill="#FF4E00"/>
<path d="M25.1158 12.6479H18.8177L17.2378 18.9678L30.2479 15.6008C29.5941 13.8356 27.8398 12.6479 25.1158 12.6479Z" fill="#FF4E00"/>
<path d="M20.2015 20.7765L18.1421 29.0576H21.9231L23.1979 23.9364H26.1726C30.6945 23.9364 33.7999 21.986 33.7999 17.9653C33.7999 17.7364 33.7891 17.5076 33.7564 17.2788L20.2124 20.7874L20.2015 20.7765Z" fill="#FF4E00"/>
<path d="M34.2358 12.8657L35.8921 18.5644L39.9999 14.2713L34.2358 12.8657Z" fill="#FF4E00"/>
</g>
<defs>
<clipPath id="clip0_5362_7680">
<rect width="40" height="20.3432" fill="white" transform="translate(0 10)"/>
</clipPath>
</defs>
</svg>
