<svg width="25" height="30" viewBox="0 0 25 30" fill="none" xmlns="http://www.w3.org/2000/svg">
<path d="M23.1651 8.63932C23.7715 8.63932 24.1919 8.02624 23.9646 7.46404C23.1571 5.46794 21.1988 4.05599 18.9166 4.05599H17.8617C17.4683 1.97785 15.6462 0.332031 13.4166 0.332031H11.5833C9.35518 0.332031 7.53193 1.97676 7.13828 4.05599H6.08331C3.80116 4.05599 1.84281 5.46794 1.0354 7.46404C0.808012 8.02624 1.22848 8.63932 1.83491 8.63932H23.1651ZM11.5833 2.05078H13.4166C14.6713 2.05078 15.7364 2.89492 16.0949 4.05599H8.90504C9.26357 2.89492 10.3286 2.05078 11.5833 2.05078Z" fill="#22252A"/>
<path d="M4.1959 27.2697C4.29152 28.6127 5.42114 29.6647 6.7675 29.6647H18.2328C19.5791 29.6647 20.7087 28.6127 20.8044 27.2697L22.0088 10.3574H2.99152L4.1959 27.2697ZM14.8502 14.9551C14.8739 14.4811 15.2781 14.1155 15.7514 14.1398C16.2254 14.1635 16.5905 14.567 16.5668 15.041L16.1084 24.2076C16.0855 24.667 15.7057 25.0241 15.2508 25.0241C14.756 25.0241 14.3674 24.6103 14.3918 24.1218L14.8502 14.9551ZM9.24891 14.1398C9.72231 14.116 10.1264 14.4812 10.1501 14.9551L10.6084 24.1218C10.6329 24.6105 10.244 25.0241 9.74941 25.0241C9.29452 25.0241 8.91479 24.667 8.89181 24.2076L8.43348 15.041C8.40982 14.567 8.77488 14.1635 9.24891 14.1398Z" fill="#22252A"/>
</svg>
