<svg width="20" height="20" viewBox="0 0 20 20" fill="none" xmlns="http://www.w3.org/2000/svg">
<path fill-rule="evenodd" clip-rule="evenodd" d="M10 0C15.5229 0 20 4.47715 20 10C20 15.5229 15.5229 20 10 20C4.47715 20 0 15.5229 0 10C0 4.47715 4.47715 0 10 0ZM14.0989 6.27426C13.3228 5.91926 12.5036 5.66736 11.6621 5.52496C11.5474 5.73092 11.4435 5.9427 11.3509 6.15945C10.9033 6.09191 10.4513 6.05793 9.99859 6.05777C9.54668 6.05777 9.09254 6.09211 8.64617 6.15855C8.555 5.94336 8.44914 5.73 8.33422 5.52484C7.49269 5.66863 6.67339 5.92102 5.89684 6.2757C4.35453 8.55727 3.93656 10.7818 4.14555 12.9748C5.04864 13.6419 6.05939 14.1492 7.13391 14.4747C7.37488 14.1495 7.59074 13.8032 7.77398 13.4428C7.42432 13.3125 7.0869 13.1515 6.76566 12.9616C6.8502 12.9003 6.93289 12.8371 7.01273 12.7758C7.9468 13.2145 8.96738 13.4433 9.99996 13.4433C11.0326 13.4433 12.0532 13.2145 12.9873 12.7758C13.0681 12.8417 13.1508 12.9049 13.2343 12.9615C12.9125 13.1518 12.5744 13.3132 12.2242 13.444C12.4081 13.8052 12.6222 14.1501 12.8643 14.4752C13.9398 14.1506 14.9513 13.6433 15.8546 12.9755C16.0998 10.4323 15.4355 8.22848 14.0989 6.27426ZM8.03828 11.6262C7.45594 11.6262 6.97477 11.0977 6.97477 10.4475C6.97477 9.79727 7.43918 9.26414 8.03641 9.26414C8.63367 9.26414 9.11105 9.79727 9.10086 10.4475C9.09062 11.0977 8.6318 11.6262 8.03828 11.6262ZM11.9617 11.6262C11.3784 11.6262 10.8991 11.0977 10.8991 10.4475C10.8991 9.79727 11.3635 9.26414 11.9617 9.26414C12.5598 9.26414 13.0336 9.79727 13.0233 10.4475C13.0131 11.0977 12.5552 11.6262 11.9617 11.6262Z" fill="white"/>
</svg>
