<svg width="20" height="20" viewBox="0 0 20 20" fill="none" xmlns="http://www.w3.org/2000/svg">
<path d="M20 10.0368C20 4.4936 15.5229 0 10 0C4.47715 0 0 4.4936 0 10.0368C0 14.7438 3.22859 18.6933 7.58426 19.7779V13.1038H5.52215V10.0368H7.58426V8.71516C7.58426 5.29898 9.12457 3.71556 12.4662 3.71556C13.0997 3.71556 14.1928 3.84023 14.64 3.96491V6.74525C14.404 6.72035 13.9941 6.70785 13.4848 6.70785C11.845 6.70785 11.2115 7.33126 11.2115 8.95204V10.0368H14.4779L13.9167 13.1038H11.2115V20C16.1629 19.3998 20 15.1682 20 10.0368Z" fill="white"/>
</svg>
