<svg width="20" height="15" viewBox="0 0 20 15" fill="none" xmlns="http://www.w3.org/2000/svg">
<g clip-path="url(#clip0_3847_7492)">
<path fill-rule="evenodd" clip-rule="evenodd" d="M14.69 10.4723C14.1188 9.90109 13.3528 9.58301 12.5479 9.58301H8.0039C7.19896 9.58301 6.43298 9.90109 5.86173 10.4723C5.29049 11.0436 4.97241 11.8096 4.97241 12.6145V14.127H15.5729V12.6145C15.5729 11.8096 15.2548 11.0436 14.6835 10.4723H14.69Z" fill="white"/>
<path d="M10.1979 8.01882C12.3203 8.01882 14.0408 6.2983 14.0408 4.17592C14.0408 2.05354 12.3203 0.333008 10.1979 0.333008C8.07551 0.333008 6.35498 2.05354 6.35498 4.17592C6.35498 6.2983 8.07551 8.01882 10.1979 8.01882Z" fill="white"/>
<path d="M4.65433 9.8623C4.01818 10.6348 3.67413 11.602 3.67413 12.6147V13.6663H0V12.4004C0 11.7253 0.266147 11.0827 0.740019 10.6023C1.22038 10.1285 1.86303 9.8623 2.53814 9.8623H4.65433Z" fill="white"/>
<path fill-rule="evenodd" clip-rule="evenodd" d="M6.50443 7.74586C5.93968 8.2457 5.19317 8.5508 4.37525 8.5508C2.59661 8.5508 1.15552 7.10971 1.15552 5.33106C1.15552 3.55242 2.59661 2.11133 4.37525 2.11133C4.73877 2.11133 5.08931 2.16975 5.41388 2.2866C5.18668 2.87082 5.05685 3.50698 5.05685 4.17559C5.05685 5.55826 5.60862 6.81759 6.50443 7.74586Z" fill="white"/>
<path d="M20.0002 12.4004V13.6663H16.8713V12.6147C16.8713 11.602 16.5273 10.6348 15.8911 9.8623H17.462C18.1371 9.8623 18.7798 10.1285 19.2601 10.6023C19.734 11.0827 20.0002 11.7253 20.0002 12.4004Z" fill="white"/>
<path fill-rule="evenodd" clip-rule="evenodd" d="M18.7148 5.33106C18.7148 7.10971 17.2737 8.5508 15.495 8.5508C14.8134 8.5508 14.1773 8.33658 13.658 7.97306C14.6901 7.03181 15.3392 5.6816 15.3392 4.17559C15.3392 3.46154 15.1899 2.78643 14.9238 2.16326C15.112 2.1308 15.3003 2.11133 15.495 2.11133C17.2737 2.11133 18.7148 3.55242 18.7148 5.33106Z" fill="white"/>
</g>
<defs>
<clipPath id="clip0_3847_7492">
<rect width="20" height="13.7942" fill="white" transform="translate(0 0.333008)"/>
</clipPath>
</defs>
</svg>
