<svg width="20" height="20" viewBox="0 0 20 20" fill="none" xmlns="http://www.w3.org/2000/svg">
<path fill-rule="evenodd" clip-rule="evenodd" d="M20 10C20 15.5228 15.5228 20 10 20C4.47715 20 0 15.5228 0 10C0 4.47715 4.47715 0 10 0C15.5228 0 20 4.47715 20 10ZM15.1554 8.59308C15.9633 8.56574 16.6394 9.19462 16.6692 9.99999C16.6792 10.5618 16.3635 11.0788 15.8614 11.3298C15.8713 11.4765 15.8713 11.6232 15.8614 11.7698C15.8614 14.0119 13.2514 15.8315 10.0324 15.8315C6.81341 15.8315 4.20342 14.0094 4.20342 11.7698C4.19347 11.6232 4.19347 11.4765 4.20342 11.3298C4.05676 11.2652 3.92502 11.1732 3.81067 11.0664C3.22156 10.5145 3.19422 9.58985 3.74605 9.00322C4.29787 8.41411 5.22256 8.38676 5.80918 8.93859C6.96255 8.15808 8.31726 7.73054 9.70926 7.70817L10.4475 4.23812V4.23315C10.4848 4.06412 10.6513 3.95972 10.8179 3.99701L13.2688 4.48669C13.4254 4.21326 13.7088 4.02932 14.0244 3.99701C14.5738 3.93735 15.066 4.33506 15.1256 4.8844C15.1853 5.43374 14.7876 5.92591 14.2382 5.98557C13.6889 6.04523 13.1967 5.64752 13.137 5.09817L10.9969 4.64826L10.3481 7.76782C11.7227 7.79765 13.06 8.22271 14.1984 8.99825C14.457 8.75216 14.7975 8.60551 15.1554 8.59308ZM7.67098 9.99999C7.11915 9.99999 6.66924 10.4499 6.66924 11.0017C6.66924 11.5536 7.11666 11.9985 7.67098 12.0035C8.2228 12.0035 8.67272 11.5536 8.67272 11.0017C8.67272 10.4499 8.2228 9.99999 7.67098 9.99999ZM10.0075 14.5215C10.8974 14.5588 11.7674 14.2853 12.4783 13.7509V13.7907C12.5877 13.6838 12.5902 13.5048 12.4833 13.3955C12.3764 13.2861 12.1975 13.2836 12.0881 13.3905C11.4791 13.8255 10.7433 14.0393 9.9976 13.9995C9.25189 14.0343 8.5186 13.8106 7.91706 13.3706C7.81515 13.2886 7.67346 13.2886 7.57404 13.3706C7.45969 13.4651 7.44229 13.6366 7.53675 13.7509C8.24766 14.2853 9.11766 14.5588 10.0075 14.5215ZM11.2976 11.0365C11.2976 11.5884 11.7475 12.0383 12.2994 12.0383L12.2919 12.0756H12.3416C12.8934 12.0532 13.3235 11.5884 13.3011 11.0365C13.3011 10.4847 12.8512 10.0348 12.2994 10.0348C11.7475 10.0348 11.2976 10.4847 11.2976 11.0365Z" fill="white"/>
</svg>
