<svg width="20" height="20" viewBox="0 0 20 20" fill="none" xmlns="http://www.w3.org/2000/svg">
<path d="M2.5 15V10C2.5 8.01088 3.29018 6.10322 4.6967 4.6967C6.10322 3.29018 8.01088 2.5 10 2.5C11.9891 2.5 13.8968 3.29018 15.3033 4.6967C16.7098 6.10322 17.5 8.01088 17.5 10V15" stroke="white" stroke-width="2" stroke-linecap="round" stroke-linejoin="round"/>
<path d="M17.5 15.8332C17.5 16.2752 17.3244 16.6991 17.0118 17.0117C16.6993 17.3242 16.2754 17.4998 15.8333 17.4998H15C14.558 17.4998 14.134 17.3242 13.8215 17.0117C13.5089 16.6991 13.3333 16.2752 13.3333 15.8332V13.3332C13.3333 12.8911 13.5089 12.4672 13.8215 12.1547C14.134 11.8421 14.558 11.6665 15 11.6665H17.5V15.8332ZM2.5 15.8332C2.5 16.2752 2.67559 16.6991 2.98816 17.0117C3.30072 17.3242 3.72464 17.4998 4.16667 17.4998H5C5.44203 17.4998 5.86595 17.3242 6.17851 17.0117C6.49107 16.6991 6.66667 16.2752 6.66667 15.8332V13.3332C6.66667 12.8911 6.49107 12.4672 6.17851 12.1547C5.86595 11.8421 5.44203 11.6665 5 11.6665H2.5V15.8332Z" fill="white" stroke="white" stroke-width="2" stroke-linecap="round" stroke-linejoin="round"/>
</svg>
