<svg width="20" height="20" viewBox="0 0 20 20" fill="none" xmlns="http://www.w3.org/2000/svg">
<rect width="20" height="20" rx="10" fill="white"/>
<path fill-rule="evenodd" clip-rule="evenodd" d="M13.6803 6.39453C13.0319 5.97193 12.5641 5.29533 12.4181 4.50693C12.3867 4.33673 12.3691 4.16133 12.3691 3.98193H10.2999L10.2965 12.2749C10.2617 13.2035 9.49731 13.9489 8.56051 13.9489C8.26911 13.9489 7.99511 13.8763 7.75351 13.7491C7.19991 13.4577 6.82091 12.8775 6.82091 12.2097C6.82091 11.2505 7.60131 10.4701 8.56031 10.4701C8.73931 10.4701 8.91111 10.4997 9.07351 10.5503V8.43793C8.90531 8.41493 8.73451 8.40073 8.56031 8.40073C6.46011 8.40073 4.75171 10.1093 4.75171 12.2097C4.75171 13.4981 5.39531 14.6385 6.37771 15.3281C6.99631 15.7625 7.74911 16.0183 8.56051 16.0183C10.6607 16.0183 12.3691 14.3097 12.3691 12.2097V8.00433C13.1807 8.58673 14.1751 8.92993 15.2481 8.92993V6.86073C14.6703 6.86073 14.1321 6.68893 13.6803 6.39453Z" fill="black"/>
</svg>
