<svg width="12" height="16" viewBox="0 0 12 16" fill="none" xmlns="http://www.w3.org/2000/svg">
<path fill-rule="evenodd" clip-rule="evenodd" d="M1.00008 0.5C0.539844 0.5 0.166748 0.873096 0.166748 1.33333V14.6667C0.166748 15.1269 0.539844 15.5 1.00008 15.5H4.33342C4.79365 15.5 5.16675 15.1269 5.16675 14.6667V1.33333C5.16675 0.873096 4.79365 0.5 4.33342 0.5H1.00008ZM7.66675 0.5C7.20651 0.5 6.83341 0.873096 6.83341 1.33333V14.6667C6.83341 15.1269 7.20651 15.5 7.66675 15.5H11.0001C11.4603 15.5 11.8334 15.1269 11.8334 14.6667V1.33333C11.8334 0.873096 11.4603 0.5 11.0001 0.5H7.66675Z" fill="white"/>
</svg>
