<svg width="20" height="20" viewBox="0 0 20 20" fill="none" xmlns="http://www.w3.org/2000/svg">
<path fill-rule="evenodd" clip-rule="evenodd" d="M9.99992 4.16733C9.99992 3.84699 9.8163 3.55501 9.52758 3.41624C9.23886 3.27747 8.89615 3.31649 8.64601 3.5166L4.7076 6.66733H1.66659C1.20635 6.66733 0.833252 7.04042 0.833252 7.50066V12.5007C0.833252 12.9609 1.20635 13.334 1.66659 13.334H4.7076L8.64601 16.4847C8.89615 16.6848 9.23886 16.7238 9.52758 16.5851C9.8163 16.4463 9.99992 16.1543 9.99992 15.834V4.16733Z" fill="white"/>
<path fill-rule="evenodd" clip-rule="evenodd" d="M18.9226 6.91009C19.248 7.23553 19.248 7.76317 18.9226 8.0886L13.9226 13.0886C13.5972 13.414 13.0695 13.414 12.7441 13.0886C12.4186 12.7632 12.4186 12.2355 12.7441 11.9101L17.7441 6.91009C18.0695 6.58466 18.5972 6.58466 18.9226 6.91009Z" fill="white"/>
<path fill-rule="evenodd" clip-rule="evenodd" d="M12.7441 6.91009C13.0695 6.58466 13.5972 6.58466 13.9226 6.91009L18.9226 11.9101C19.248 12.2355 19.248 12.7632 18.9226 13.0886C18.5972 13.414 18.0695 13.414 17.7441 13.0886L12.7441 8.0886C12.4186 7.76317 12.4186 7.23553 12.7441 6.91009Z" fill="white"/>
</svg>
